<?xml version="1.0" encoding="UTF-8"?>
<svg id="_Слой_1" data-name="Слой 1" xmlns="http://www.w3.org/2000/svg" viewBox="0 0 176.34 241.96">
  <defs>
    <style>
      .cls-1 {
        fill: #000;
        stroke-width: 0px;
      }
    </style>
  </defs>
  <path class="cls-1" d="M99.59,232.48c-7.88-4.72-9.16-8.04-7.61-17.3,2.63-15.73,5.06-31.5,7.41-47.28.28-1.86-.16-3.98-.79-5.79-3.21-9.25-6.48-18.5-10.04-27.62-.62-1.59-2.59-3.45-4.2-3.73-7.01-1.24-12.08-4.95-14.76-11.33-2.88-6.85-5.08-13.99-7.88-21.84,2.84-.25,4.7-.41,7.44-.65.15,3.51.5,6.74.39,9.96-.18,5.38,1.75,9.53,6.7,11.77,11.01,4.99,22.14,9.72,33.14,14.74,1.72.78,3.03,2.47,4.47,3.81.33.31.42.89.59,1.36q9.23,25.67,3.77,56.58c-1.38,7.85-2.72,15.73-3.62,23.65-.71,6.27-3.03,11.09-9.04,13.68h-6Z"/>
  <path class="cls-1" d="M102.59,7.48c8.55,2.92,14.87,7.88,16.41,17.44,1.71,10.62-5.23,21.03-15.78,23.14-1.54.31-3.73-.11-4.94-1.06-6.3-4.9-12.45-10.01-18.49-15.23-.92-.79-1.34-2.56-1.38-3.89-.25-8.35,5.4-16.29,13.44-19.12,1.24-.44,2.49-.85,3.74-1.28,2.33,0,4.67,0,7,0Z"/>
  <path class="cls-1" d="M140.8,61.22c4.52-4.92,9.33-7.33,15.11-5.66,6.18,1.78,9.43,6.81,10.59,12.8.68,3.5.9,7.52-.13,10.85-5.2,16.82-14.32,31.26-27.83,43.32-3-4.84-7.39-5.64-12.5-5.94-16.78-.97-31.57-7.67-44.77-17.66-4.12-3.12-7.83-4.79-13-4.39-14.44,1.12-28.91,1.83-43.37,2.68-1.99.12-4,.32-5.99.21-6.07-.34-10.7-4.99-10.99-10.88-.28-5.65,3.63-10.78,9.55-11.57,5.76-.77,11.62-.84,17.43-1.18,13.96-.81,27.93-1.54,41.88-2.43,4.6-.29,8.33,1.01,11.84,4.09,8.97,7.87,18.18,15.49,27.81,23.65,3.82-5.59,7.69-10.6,10.8-16.04,1.86-3.25,3.95-3.83,7.27-3.36,4.11.59,8.28.82,12.43,1.01,5.61.25,9.94-3.35,10.48-8.5.5-4.83-2.92-9.21-8.25-10.24-2.43-.47-4.96-.47-8.38-.76Z"/>
  <path class="cls-1" d="M146.48,78.57c-13.89-1.11-25.84-1.95-37.77-3.13-2.14-.21-4.47-1.39-6.16-2.78-10.13-8.38-20.13-16.92-30.12-25.48-4.37-3.74-5.13-7.76-2.34-11.2,2.92-3.61,7.37-3.56,11.8.18,9.03,7.63,17.96,15.37,27.11,22.85,1.64,1.34,4.06,2.17,6.21,2.38,10.27,1.01,20.57,1.66,30.84,2.58,6.59.59,9.56,3.4,9.05,8.15-.51,4.73-3.85,6.73-8.61,6.45Z"/>
  <path class="cls-1" d="M147.54,50.6c-11.5-.05-20.45-9.17-20.3-20.7.14-11.25,9.16-20.25,20.33-20.29,11.32-.04,20.72,9.29,20.69,20.56-.02,11.39-9.25,20.48-20.72,20.44Z"/>
  <path class="cls-1" d="M72.1,96.07c1.9.94,3.72,1.5,5.13,2.58,15.52,11.87,32.52,19.88,52.42,20.6,4.57.17,7.16,3.01,7.04,7.31-.11,4.11-2.91,6.82-7.51,6.96-14.55.44-27.73-4.48-40.59-10.58-1.65-.78-3.26-1.65-4.88-2.51-12.32-6.55-13.68-9.28-11.62-24.36Z"/>
  <path class="cls-1" d="M67.66,69.51c-2.2.15-3.84.25-5.45.36-1.35-6.45,2.9-15.99,8.49-18.62.97-.46,2.76.01,3.79.65,1.65,1.02,2.98,2.55,5,4.36-8.25.76-12.41,4.83-11.83,13.25Z"/>
  <path class="cls-1" d="M84.08,69.27h-14.82c1.32-3.27,1.72-6.73,3.67-8.36,1.69-1.41,5.93-1.88,7.59-.71,2.4,1.7,3.49,5.25,5.14,8.01-.53.35-1.06.71-1.58,1.06Z"/>
  <path class="cls-1" d="M86.61,62.78c6.44,3.1,9.16,7.91,8.65,14.47-6.94-3.09-8.31-5.35-8.65-14.47Z"/>
</svg>